<svg height="512pt" viewBox="0 0 512 512" width="512pt" xmlns="http://www.w3.org/2000/svg"><path d="m512 256c0 141.386719-114.613281 256-256 256s-256-114.613281-256-256 114.613281-256 256-256 256 114.613281 256 256zm0 0" fill="#fdba12"/><path d="m273.460938 511.394531c127.234374-8.570312 228.976562-110.089843 237.890624-237.230469l-204.113281-204.113281-113.238281 35.257813 73.273438 132.886718-139.96875 38.167969 134.722656 134.722657-36.117188 52.757812zm0 0" fill="#ff8b00"/><path d="m384.695312 216.183594h-93.078124c21.101562-26.566406 35.285156-70.953125 35.285156-97.128906 0-39.15625-31.746094-70.898438-70.902344-70.898438s-70.902344 31.742188-70.902344 70.898438c0 26.175781 14.183594 70.5625 35.285156 97.128906h-93.078124v60.179687h98.605468v187.480469h60.179688v-187.480469h98.601562v-60.179687zm-128.695312-125.433594c19.128906 0 34.636719 15.503906 34.636719 34.632812 0 19.128907-15.507813 58.179688-34.636719 58.179688s-34.636719-39.050781-34.636719-58.179688c0-19.125 15.507813-34.632812 34.636719-34.632812zm0 0" fill="#635d50"/><path d="m291.617188 216.183594c21.101562-26.566406 35.285156-70.953125 35.285156-97.128906 0-39.15625-31.746094-70.898438-70.902344-70.898438-.03125 0-.0625 0-.09375 0v42.59375c.03125 0 .0625-.003906.09375-.003906 19.128906 0 34.636719 15.507812 34.636719 34.636718 0 19.128907-15.507813 58.179688-34.636719 58.179688-.03125 0-.0625-.003906-.09375-.003906v280.285156h30.183594v-187.480469h98.601562v-60.179687zm0 0" fill="#444036"/></svg>